<svg viewBox="0 0 377 156" xmlns="http://www.w3.org/2000/svg" class="w-auto h-8 text-white"><path d="M194.48 130.44C213.92 130.44 227 120 227 104.28C227 92.16 219.44 84.24 204.32 79.68L186.92 74.4C180.2 72.48 176.24 68.64 176.24 63.36C176.24 56.88 182.36 52.2 191.72 52.2C201.8 52.2 209.6 57.6 212.84 66.84L226.64 60.48C221.96 47.76 208.76 38.16 191.6 38.16C172.88 38.16 160.04 48.72 160.04 64.08C160.04 75.6 167.36 84.48 182.48 89.04L200.48 94.56C206.72 96.48 210.92 99.36 210.92 105.36C210.92 111.6 204.56 116.4 194.48 116.4C184.4 116.4 175.16 110.4 170.72 99.36L157.04 105.6C161.84 120.36 176.72 130.44 194.48 130.44ZM240.665 129H256.025V38.16H240.665V129ZM271.711 54.48H287.071V38.52H271.711V54.48ZM271.711 129H287.071V63.12H271.711V129ZM339.014 61.68C329.774 61.68 321.974 65.16 317.294 71.16V63.12H302.774V153H318.134V122.52C322.934 127.44 330.134 130.44 338.774 130.44C357.854 130.44 372.494 115.44 372.494 96C372.494 76.56 357.614 61.68 339.014 61.68ZM337.214 116.4C326.174 116.4 318.134 107.88 318.134 96.12C318.134 84.24 326.174 75.84 337.214 75.84C348.374 75.84 356.534 84.36 356.534 96.12C356.534 107.76 348.374 116.4 337.214 116.4Z" fill="currentColor"></path><mask id="mask0" mask-type="alpha" maskUnits="userSpaceOnUse" x="0" y="13" width="132" height="132"><rect y="13" width="132" height="132" rx="41.5714" fill="#8F45ED"></rect></mask><g mask="url(#mask0)"><path opacity="0.5" d="M104.042 148.208L30.0208 73.2708L68.9791 38.4375L137.271 106.729L132.229 143.167L104.042 148.208Z" fill="url(#paint0_linear)"></path><path opacity="0.5" d="M132.687 190.146L63.479 120.25L97.6248 80.375L165.916 148.667L160.875 185.104L132.687 190.146Z" fill="url(#paint1_linear)"></path><g clip-path="url(#clip0)"><path d="M68.1152 97.5023C67.1919 98.4259 66.0957 99.1585 64.8893 99.6584C63.6828 100.158 62.3897 100.416 61.0837 100.416C59.7778 100.416 58.4847 100.158 57.2782 99.6584C56.0717 99.1585 54.9756 98.4259 54.0523 97.5023L30.9881 74.4382C30.0646 73.5149 29.3319 72.4187 28.8321 71.2122C28.3322 70.0057 28.075 68.7126 28.075 67.4067C28.075 66.1008 28.3322 64.8076 28.8321 63.6012C29.3319 62.3947 30.0646 61.2985 30.9881 60.3752L51.0298 40.3336C47.7597 44.1951 46.0606 49.1446 46.2696 54.2003C46.4786 59.2561 48.5804 64.0485 52.1579 67.6269C52.5501 68.019 52.9543 68.3871 53.3645 68.737L68.1152 83.4394C69.0388 84.3627 69.7714 85.4588 70.2713 86.6653C70.7711 87.8718 71.0284 89.1649 71.0284 90.4708C71.0284 91.7768 70.7711 93.0699 70.2713 94.2764C69.7714 95.4828 69.0388 96.579 68.1152 97.5023V97.5023Z" fill="url(#paint2_linear)"></path><path d="M52.013 67.4821C48.4533 63.9162 46.3737 59.1362 46.1913 54.1009C46.0089 49.0657 47.7373 44.1477 51.0297 40.3336L53.3886 37.9687C55.013 36.5907 56.8457 35.4789 58.8183 34.6747C60.9206 34.1859 63.125 34.3945 65.0983 35.2691C67.0716 36.1437 68.7067 37.6367 69.7566 39.5226C70.8065 41.4085 71.2142 43.5848 70.9181 45.7229C70.622 47.8609 69.6381 49.8445 68.1151 51.374L52.0854 67.4097L52.013 67.4821Z" fill="url(#paint3_linear)"></path><path d="M52.1578 39.0787C52.556 38.6805 52.9663 38.3064 53.3644 37.9445L51.0297 40.3335C51.3856 39.8871 51.7597 39.4768 52.1578 39.0787Z" fill="fill-current"></path></g><g clip-path="url(#clip1)"><path d="M63.5185 120.428C64.4417 121.351 65.5379 122.084 66.7444 122.584C67.9509 123.084 69.244 123.341 70.5499 123.341C71.8558 123.341 73.149 123.084 74.3554 122.584C75.5619 122.084 76.6581 121.351 77.5814 120.428L100.646 97.3636C101.569 96.4403 102.302 95.3441 102.802 94.1376C103.301 92.9312 103.559 91.638 103.559 90.3321C103.559 89.0262 103.301 87.7331 102.802 86.5266C102.302 85.3201 101.569 84.2239 100.646 83.3007L80.6039 63.259C83.874 67.1205 85.573 72.07 85.3641 77.1257C85.1551 82.1815 83.0533 86.9739 79.4757 90.5523C79.0836 90.9445 78.6794 91.3125 78.2691 91.6624L63.5185 106.365C62.5949 107.288 61.8622 108.384 61.3624 109.591C60.8625 110.797 60.6053 112.09 60.6053 113.396C60.6053 114.702 60.8625 115.995 61.3624 117.202C61.8622 118.408 62.5949 119.504 63.5185 120.428V120.428Z" fill="url(#paint4_linear)"></path><path d="M79.6208 90.4075C83.1804 86.8416 85.2601 82.0616 85.4425 77.0263C85.6249 71.9911 83.8965 67.0731 80.6041 63.259L78.2452 60.8941C76.6208 59.5161 74.7881 58.4043 72.8155 57.6001C70.7132 57.1113 68.5088 57.32 66.5355 58.1945C64.5622 59.0691 62.9271 60.5621 61.8772 62.448C60.8272 64.3339 60.4196 66.5102 60.7157 68.6483C61.0118 70.7863 61.9957 72.7699 63.5187 74.2994L79.5484 90.3351L79.6208 90.4075Z" fill="url(#paint5_linear)"></path><path d="M79.4758 62.0041C79.0776 61.6059 78.6674 61.2319 78.2692 60.8699L80.604 63.2589C80.2481 62.8125 79.874 62.4023 79.4758 62.0041Z" fill="white"></path></g></g><defs><linearGradient id="paint0_linear" x1="52.4791" y1="47.375" x2="126.271" y2="139.958" gradientUnits="userSpaceOnUse"><stop stop-color="#141A3C"></stop><stop offset="1" stop-color="#282E4C" stop-opacity="0"></stop></linearGradient><linearGradient id="paint1_linear" x1="81.5" y1="88" x2="118" y2="135" gradientUnits="userSpaceOnUse"><stop stop-color="#1C2347"></stop><stop offset="1" stop-color="#1C2347" stop-opacity="0"></stop></linearGradient><linearGradient id="paint2_linear" x1="37.4798" y1="53.8604" x2="74.6108" y2="90.9915" gradientUnits="userSpaceOnUse"><stop stop-color="white"></stop><stop offset="1" stop-color="#6F748A"></stop></linearGradient><linearGradient id="paint3_linear" x1="68.0923" y1="37.317" x2="44.9835" y2="60.4258" gradientUnits="userSpaceOnUse"><stop stop-color="#DADADA"></stop><stop offset="1" stop-color="#6F748A"></stop></linearGradient><linearGradient id="paint4_linear" x1="94.1539" y1="76.7859" x2="57.0229" y2="113.917" gradientUnits="userSpaceOnUse"><stop stop-color="white"></stop><stop offset="1" stop-color="#6F748A"></stop></linearGradient><linearGradient id="paint5_linear" x1="63.5415" y1="60.2424" x2="86.6503" y2="83.3512" gradientUnits="userSpaceOnUse"><stop stop-color="#DADADA"></stop><stop offset="1" stop-color="#6F748A"></stop></linearGradient><clipPath id="clip0"><rect width="42.9549" height="66.0191" fill="white" transform="translate(28.0499 34.3971)"></rect></clipPath><clipPath id="clip1"><rect width="42.9549" height="66.0191" fill="white" transform="matrix(-1 0 0 1 103.584 57.3225)"></rect></clipPath></defs></svg>